<svg width="301" height="80" viewBox="0 0 301 80" fill="none" xmlns="http://www.w3.org/2000/svg">
<path d="M144.783 78.0843L152.983 79.3843C152.983 79.3843 155.183 66.7843 155.483 64.1843L147.283 62.8843C146.683 64.9843 144.783 78.0843 144.783 78.0843Z" fill="#2C2A33"/>
<path d="M162.683 0.0840353C161.383 -0.315965 157.683 0.584035 152.483 5.58404C134.483 23.884 126.983 53.684 126.983 53.684C129.783 55.284 137.383 56.884 140.583 57.484C141.383 54.184 142.183 51.084 143.083 48.084C148.883 50.384 158.583 52.184 164.683 52.084C164.483 55.084 164.283 58.384 163.783 61.684C166.983 62.184 174.683 63.384 177.883 62.784C177.883 62.784 180.283 31.584 169.783 8.18404C166.083 1.28404 163.883 0.384035 162.683 0.0840353ZM157.383 38.884C152.883 39.384 148.783 36.084 148.783 31.584C148.683 26.084 151.483 22.784 156.083 22.384C161.483 21.984 164.683 24.884 165.283 29.684C165.683 34.284 162.783 38.284 157.383 38.884Z" fill="#2C2A33"/>
<path d="M132.783 69.784C134.283 70.884 137.683 73.384 139.683 74.084C141.683 71.184 142.983 69.184 144.583 65.984L137.683 62.084C137.583 61.984 134.883 66.984 132.783 69.784Z" fill="#2C2A33"/>
<path d="M156.983 68.0839C157.483 72.2839 158.883 77.3839 158.883 77.3839C160.683 77.4839 165.083 76.2839 166.883 75.7839C166.083 72.9839 164.983 66.4839 164.983 66.4839L156.983 68.0839Z" fill="#2C2A33"/>
<path d="M280.083 8.78415C273.883 8.38415 264.383 8.78415 258.183 8.88415C257.883 8.98415 258.883 50.8842 259.083 51.8842C259.283 52.0842 275.183 52.0841 280.983 52.0841C290.783 52.0841 300.083 44.3841 300.083 29.9841C299.983 16.3841 290.183 8.88415 280.083 8.78415ZM275.783 38.9841C275.183 38.9841 274.283 38.9841 273.583 38.9841C272.783 38.9841 272.783 38.8841 272.783 38.2841C272.783 37.0841 272.683 34.5841 272.683 31.0841C272.683 26.9841 272.783 23.5841 272.783 22.6841C272.783 22.4841 272.783 22.3841 273.083 22.3841C273.883 22.3841 275.783 22.2841 276.883 22.3841C281.483 22.6841 284.183 26.0841 284.183 31.5841C284.183 36.1841 280.383 39.1841 275.783 38.9841Z" fill="#2C2A33"/>
<path d="M64.8828 8.78418C51.5828 8.78418 43.3828 19.3842 43.3828 29.9842C43.3828 43.9842 52.9828 52.3842 65.0828 52.3842C78.7828 52.0842 86.6828 42.1842 86.6828 31.0842C86.7828 17.0842 77.0828 8.78418 64.8828 8.78418ZM64.4828 38.8842C59.8828 38.8842 56.2828 35.1842 56.7828 30.5842C57.3828 25.1842 60.4828 22.0842 65.0828 22.2842C70.4828 22.4842 73.3828 25.7842 73.3828 30.5842C73.2828 35.1842 69.9828 38.8842 64.4828 38.8842Z" fill="#2C2A33"/>
<path d="M115.483 9.88415C114.983 10.0842 107.783 32.7842 107.783 32.7842C107.783 32.7842 100.583 9.98415 99.6828 9.78415C96.9828 9.18415 85.9828 9.38415 85.9828 9.98415C85.8828 12.3842 100.183 51.2842 100.283 51.4842C100.983 52.1842 113.783 52.3842 115.283 51.4842C115.683 51.0842 128.383 15.3842 129.583 9.98415C129.683 9.58415 117.983 9.08415 115.483 9.88415Z" fill="#2C2A33"/>
<path d="M229.883 14.4843C229.783 13.2843 222.783 7.88428 218.883 7.88428C213.483 13.9843 205.683 23.3843 202.683 26.9843C202.783 17.8843 202.683 9.58428 202.583 9.48428C202.283 9.18428 189.283 8.58428 188.683 9.48428C188.183 10.3843 188.983 51.2843 189.183 51.5843C189.383 51.8843 201.883 51.9843 202.183 51.3843C202.283 51.2843 202.383 48.7843 202.383 45.1843C204.283 43.4843 208.283 39.9843 208.783 39.8843C209.483 39.7843 217.883 52.6843 218.583 52.6843C221.483 53.0843 231.383 48.8843 231.483 48.1843C231.683 47.5843 218.183 30.0843 218.183 30.0843C218.183 30.0843 229.883 15.6843 229.883 14.4843Z" fill="#2C2A33"/>
<path d="M235.783 9.68389C235.283 10.5839 236.583 51.4839 236.783 51.7839C236.983 52.0839 249.183 52.0839 249.483 51.4839C249.783 50.8839 249.983 9.68389 249.583 9.48389C249.283 9.18389 236.283 8.78389 235.783 9.68389Z" fill="#2C2A33"/>
<path d="M26.2828 9.98407C26.2828 11.3841 26.1828 19.8841 26.1828 28.8841C21.1828 21.5841 13.1828 9.98407 12.5828 9.98407C11.8828 9.48407 1.08284 9.58407 0.0828427 9.98407C-0.117157 28.1841 0.0828427 51.1841 0.282843 51.4841C0.982843 52.2841 11.0828 52.1841 12.3828 51.4841C12.5828 51.2841 12.6828 40.5841 12.7828 33.5841C13.9828 35.4841 15.0828 36.9841 15.8828 38.0841C19.5828 42.9841 26.3828 51.5841 26.3828 51.5841C28.0828 52.0841 36.0828 52.1841 38.5828 51.3841C38.8828 47.1841 39.0828 15.5841 39.0828 9.88407C36.4828 9.28407 29.6828 9.38407 26.2828 9.98407Z" fill="#2C2A33"/>
</svg>
